# xmcd
#
# Track frame offsets:
#	150
#	39604
#	67772
#	98088
#	121658
#	139052
#	163028
#	180433
#	200729
#	214561
#	239149
#	254626
#	268409
#	294138
#	312675
#
# Disc length: 4410 seconds
#
# Revision: 1
# Processed by: cddbd v1.5PL3 Copyright (c) Steve Scherf et al.
# Submitted via: audiograbber 1.83.01
#
DISCID=e411380f
DTITLE=Rolling Stones - Place Pigalle 5
DYEAR=1978
DGENRE=Blues
TTITLE0=Miss You IV
TTITLE1=When The Whip Comes Down III
TTITLE2=Just My Imagination II
TTITLE3=Some Girls I
TTITLE4=Lies III
TTITLE5=Far Away Eyes II
TTITLE6=Respectable II
TTITLE7=Everything Is Turning To Gold II 
TTITLE8=Do You Really Think I Care
TTITLE9=A Different Kind
TTITLE10=Shattered II 
TTITLE11=Shattered I
TTITLE12=Munich Hilton II
TTITLE13=Beast of Burden I
TTITLE14=Guitar Lesson
EXTD=
EXTT0=
EXTT1=
EXTT2=
EXTT3=
EXTT4=
EXTT5=
EXTT6=
EXTT7=
EXTT8=
EXTT9=
EXTT10=
EXTT11=
EXTT12=
EXTT13=
EXTT14=
PLAYORDER=
